# xmcd
#
# Track frame offsets: 
#        150
#        22770
#        54967
#        73322
#        98035
#        127047
#        150992
#        177245
#
# Disc length: 2611 seconds
#
# Revision: 2
# Processed by: cddbd v1.5.2PL0 Copyright (c) Steve Scherf et al.
# Submitted via: ExactAudioCopy v0.95b3
#
DISCID=5d0a3108
DTITLE=Lucky Peterson - Ridin'
DYEAR=1993
DGENRE=
TTITLE0=Ridin'
TTITLE1=Don't Answer The Door
TTITLE2=Farther Up The Road
TTITLE3=Kinda Easy Like
TTITLE4=Baby What You Want Me To Do
TTITLE5=Green Onions
TTITLE6=Little Red Rooster
TTITLE7=You Don't Have To Go
EXTD=
EXTT0=
EXTT1=
EXTT2=
EXTT3=
EXTT4=
EXTT5=
EXTT6=
EXTT7=
PLAYORDER=
